<svg xmlns="http://www.w3.org/2000/svg" version="1.1" width="512px" height="512px" style="shape-rendering:geometricPrecision; text-rendering:geometricPrecision; image-rendering:optimizeQuality; fill-rule:evenodd; clip-rule:evenodd" xmlns:xlink="http://www.w3.org/1999/xlink">
<g><path style="opacity:0.941" fill="#fff" d="M 209.5,33.5 C 240.261,31.0276 265.761,41.3609 286,64.5C 303.319,84.1547 311.985,107.155 312,133.5C 319.058,140.409 321.391,148.742 319,158.5C 315.016,170.146 306.85,175.979 294.5,176C 309.758,182.356 314.925,193.523 310,209.5C 305.547,218.726 298.214,223.726 288,224.5C 284.645,255.198 272.645,281.865 252,304.5C 250.38,314.887 248.547,325.22 246.5,335.5C 249.807,337.208 253.307,338.541 257,339.5C 257.5,339.167 258,338.833 258.5,338.5C 278.85,279.804 320.184,252.304 382.5,256C 436.667,266.167 468.833,298.333 479,352.5C 483.483,399.689 466.316,436.522 427.5,463C 394.928,481.555 360.928,484.555 325.5,472C 276.994,449.53 253.494,411.363 255,357.5C 253.806,356.57 252.473,355.903 251,355.5C 249.116,357.45 247.782,359.784 247,362.5C 233.667,400.5 220.333,438.5 207,476.5C 202.99,481.003 198.324,481.67 193,478.5C 176.607,436.656 160.607,394.656 145,352.5C 139.565,351.52 134.065,351.52 128.5,352.5C 127.281,368.495 127.281,384.495 128.5,400.5C 143.869,409.113 147.703,421.446 140,437.5C 130.209,448.243 118.709,450.41 105.5,444C 95.6339,435.866 92.8006,425.699 97,413.5C 100.028,407.639 104.528,403.306 110.5,400.5C 111.666,385.511 111.833,370.511 111,355.5C 76.6529,367.179 55.9863,390.846 49,426.5C 47.9079,442.814 47.2413,459.147 47,475.5C 45.4714,478.516 42.9714,479.849 39.5,479.5C 36.0286,479.849 33.5286,478.516 32,475.5C 31.0792,456.462 31.4125,437.462 33,418.5C 41.476,382.024 62.976,356.524 97.5,342C 103.332,339.723 109.332,338.056 115.5,337C 122.03,322.304 132.697,311.804 147.5,305.5C 146.846,303.885 146.346,302.218 146,300.5C 127.107,278.344 116.273,252.677 113.5,223.5C 92.093,221.905 83.9263,210.572 89,189.5C 92.3141,182.851 97.4808,178.351 104.5,176C 83.6599,173.478 75.8266,161.978 81,141.5C 84.36,135.307 89.1934,130.64 95.5,127.5C 93.6923,97.1429 107.026,76.6429 135.5,66C 140.193,65.0919 144.86,64.0919 149.5,63C 166.762,47.5356 186.762,37.7022 209.5,33.5 Z M 210.5,50.5 C 230.13,48.2375 247.463,53.4041 262.5,66C 281.772,82.0457 292.439,102.546 294.5,127.5C 284.828,127.666 275.161,127.5 265.5,127C 249.302,103.945 227.969,97.6114 201.5,108C 193.382,112.451 186.882,118.617 182,126.5C 172.533,119.231 165.2,110.231 160,99.5C 155.64,97.0163 151.14,96.8496 146.5,99C 133.833,105 124.5,114.333 118.5,127C 116.421,127.808 114.421,127.641 112.5,126.5C 110.725,105.899 119.392,91.3992 138.5,83C 144.075,81.4849 149.742,80.4849 155.5,80C 171.321,65.4237 189.654,55.5904 210.5,50.5 Z M 147.5,117.5 C 148.552,117.351 149.552,117.517 150.5,118C 152.833,121 155.167,124 157.5,127C 151.167,127.667 144.833,127.667 138.5,127C 141.029,123.306 144.029,120.14 147.5,117.5 Z M 216.5,120.5 C 233.58,118.452 245.746,125.119 253,140.5C 257.771,159.119 251.604,172.619 234.5,181C 215.881,185.771 202.381,179.604 194,162.5C 189.236,141.685 196.736,127.685 216.5,120.5 Z M 103.5,143.5 C 127.5,143.5 151.5,143.5 175.5,143.5C 175.5,148.833 175.5,154.167 175.5,159.5C 151.498,159.667 127.498,159.5 103.5,159C 96.6531,157.134 94.8197,152.968 98,146.5C 99.8761,145.391 101.709,144.391 103.5,143.5 Z M 271.5,143.5 C 279.507,143.334 287.507,143.5 295.5,144C 302.347,145.866 304.18,150.032 301,156.5C 299.352,157.717 297.519,158.55 295.5,159C 287.507,159.5 279.507,159.666 271.5,159.5C 271.5,154.167 271.5,148.833 271.5,143.5 Z M 220.5,144.5 C 229.85,144.365 232.517,148.532 228.5,157C 219.956,160.322 216.123,157.489 217,148.5C 217.69,146.65 218.856,145.316 220.5,144.5 Z M 129.5,175.5 C 146.837,175.333 164.17,175.5 181.5,176C 197.698,199.055 219.031,205.389 245.5,195C 253.785,190.382 260.452,184.049 265.5,176C 267.81,175.503 270.143,175.337 272.5,175.5C 276.043,208.82 270.543,240.487 256,270.5C 236.326,303.503 208.492,313.003 172.5,299C 167.481,296.157 162.814,292.824 158.5,289C 142.294,269.073 132.794,246.239 130,220.5C 129.5,205.504 129.333,190.504 129.5,175.5 Z M 111.5,191.5 C 112.651,196.65 112.817,201.984 112,207.5C 104.874,205.579 102.874,201.246 106,194.5C 107.876,193.391 109.709,192.391 111.5,191.5 Z M 289.5,192.5 C 294.574,195.202 295.741,199.202 293,204.5C 292,205.167 291,205.833 290,206.5C 289.501,201.845 289.334,197.179 289.5,192.5 Z M 366.5,271.5 C 408.559,273.435 438.392,293.435 456,331.5C 471.329,378.505 459.495,417.005 420.5,447C 385.162,468.996 349.829,468.996 314.5,447C 275.503,417 263.669,378.5 279,331.5C 296.401,294.255 325.568,274.255 366.5,271.5 Z M 166.5,315.5 C 188.029,324.378 209.695,324.711 231.5,316.5C 231.833,317.167 232.167,317.833 232.5,318.5C 231.656,323.405 230.656,328.238 229.5,333C 209.378,339.272 189.378,338.939 169.5,332C 167.911,326.636 166.911,321.136 166.5,315.5 Z M 336.5,315.5 C 341.974,315.799 346.974,317.465 351.5,320.5C 345.19,324.881 338.19,327.381 330.5,328C 323.005,332.838 322.672,338.172 329.5,344C 337.498,344.753 345.165,343.419 352.5,340C 365.001,332.584 377.335,324.917 389.5,317C 409.425,313.794 421.091,322.127 424.5,342C 424.363,344.898 423.863,347.731 423,350.5C 413.803,375.758 404.803,401.091 396,426.5C 393.633,429.932 390.966,430.265 388,427.5C 384.329,412.817 380.663,398.151 377,383.5C 369.54,376.411 362.873,377.077 357,385.5C 353.921,399.564 350.587,413.564 347,427.5C 344.034,430.265 341.367,429.932 339,426.5C 330.864,403.091 322.53,379.757 314,356.5C 306.392,334.375 313.892,320.708 336.5,315.5 Z M 149.5,323.5 C 150.653,327.202 151.653,331.035 152.5,335C 147.167,335.667 141.833,335.667 136.5,335C 140.433,330.558 144.767,326.724 149.5,323.5 Z M 163.5,351.5 C 175.962,352.827 188.462,353.827 201,354.5C 209.83,354.853 218.496,353.853 227,351.5C 228.811,352.078 230.645,352.578 232.5,353C 221.535,384.226 210.369,415.393 199,446.5C 186.665,414.991 174.832,383.325 163.5,351.5 Z M 116.5,416.5 C 125.85,416.365 128.517,420.532 124.5,429C 115.956,432.322 112.123,429.489 113,420.5C 113.69,418.65 114.856,417.316 116.5,416.5 Z"/></g>
<g><path style="opacity:0.934" fill="#fff" d="M 216.5,127.5 C 231.367,125.012 241.534,130.678 247,144.5C 249.982,159.376 244.482,169.543 230.5,175C 215.624,177.982 205.457,172.482 200,158.5C 197.146,143.533 202.646,133.199 216.5,127.5 Z M 220.5,144.5 C 218.856,145.316 217.69,146.65 217,148.5C 216.123,157.489 219.956,160.322 228.5,157C 232.517,148.532 229.85,144.365 220.5,144.5 Z"/></g>
</svg>
