<svg width="23" height="31" viewBox="0 0 23 31" fill="none" xmlns="http://www.w3.org/2000/svg">
<path d="M0.041748 3.875C0.041748 1.7377 1.91024 0 4.20841 0H18.7917C21.0899 0 22.9584 1.7377 22.9584 3.875V27.125C22.9584 29.2623 21.0899 31 18.7917 31H4.20841C1.91024 31 0.041748 29.2623 0.041748 27.125V3.875ZM13.5834 27.125C13.5834 26.6111 13.3639 26.1183 12.9732 25.755C12.5825 25.3916 12.0526 25.1875 11.5001 25.1875C10.9475 25.1875 10.4176 25.3916 10.0269 25.755C9.63624 26.1183 9.41675 26.6111 9.41675 27.125C9.41675 27.6389 9.63624 28.1317 10.0269 28.495C10.4176 28.8584 10.9475 29.0625 11.5001 29.0625C12.0526 29.0625 12.5825 28.8584 12.9732 28.495C13.3639 28.1317 13.5834 27.6389 13.5834 27.125ZM18.7917 3.875H4.20841V23.25H18.7917V3.875Z" fill="white"/>
</svg>
