<svg width="25" height="26" viewBox="0 0 25 26" fill="none" xmlns="http://www.w3.org/2000/svg">
<path d="M21.2556 4.41846C18.9174 2.07471 15.8036 0.785645 12.4944 0.785645C5.66406 0.785645 0.106027 6.34368 0.106027 13.174C0.106027 15.356 0.675223 17.4877 1.75781 19.3682L0 25.7856L6.56808 24.0613C8.37612 25.049 10.4129 25.568 12.4888 25.568H12.4944C19.3192 25.568 25 20.01 25 13.1796C25 9.87047 23.5938 6.76221 21.2556 4.41846ZM12.4944 23.481C10.6417 23.481 8.82812 22.9843 7.24888 22.0468L6.875 21.8236L2.97991 22.8448L4.01786 19.0446L3.77232 18.6539C2.73996 17.0133 2.19866 15.1216 2.19866 13.174C2.19866 7.49881 6.8192 2.87828 12.5 2.87828C15.2511 2.87828 17.8348 3.94971 19.7768 5.89725C21.7188 7.8448 22.9129 10.4285 22.9074 13.1796C22.9074 18.8604 18.1696 23.481 12.4944 23.481ZM18.1417 15.7689C17.8348 15.6127 16.3114 14.8649 16.0268 14.7644C15.7422 14.6584 15.5357 14.6082 15.3292 14.9207C15.1228 15.2332 14.5312 15.9252 14.3471 16.1372C14.1685 16.3437 13.9844 16.3716 13.6775 16.2153C11.8583 15.3057 10.6641 14.5914 9.46429 12.5323C9.14621 11.9854 9.78237 12.0245 10.3739 10.8414C10.4743 10.635 10.4241 10.4564 10.346 10.3002C10.2679 10.1439 9.64844 8.62047 9.39174 8.00105C9.14062 7.39837 8.88393 7.48207 8.6942 7.47091C8.51562 7.45975 8.30915 7.45975 8.10268 7.45975C7.8962 7.45975 7.56138 7.53788 7.27679 7.8448C6.99219 8.1573 6.1942 8.90506 6.1942 10.4285C6.1942 11.9519 7.30469 13.4252 7.45536 13.6316C7.61161 13.8381 9.63728 16.9631 12.7455 18.308C14.7098 19.1562 15.4799 19.2287 16.4621 19.0836C17.0592 18.9943 18.2924 18.3359 18.5491 17.6104C18.8058 16.885 18.8058 16.2656 18.7277 16.1372C18.6551 15.9977 18.4487 15.9196 18.1417 15.7689Z" fill="white"/>
</svg>
